<?xml version="1.0" encoding="iso-8859-1"?>
<!-- Generator: Adobe Illustrator 17.1.0, SVG Export Plug-In . SVG Version: 6.00 Build 0)  -->
<!DOCTYPE svg PUBLIC "-//W3C//DTD SVG 1.1//EN" "http://www.w3.org/Graphics/SVG/1.1/DTD/svg11.dtd">
<svg xmlns="http://www.w3.org/2000/svg" xmlns:xlink="http://www.w3.org/1999/xlink" version="1.1" id="Capa_1" x="0px" y="0px" viewBox="0 0 511 511" style="enable-background:new 0 0 511 511;" xml:space="preserve" width="512px" height="512px">
<g>
	<path d="M510.941,349.822c-0.397-5.534-2.744-10.753-6.615-14.724c-0.106-0.114-0.216-0.225-0.33-0.332l-95.878-95.878   C403.683,234.446,397.781,232,391.5,232s-12.183,2.446-16.616,6.884c-4.439,4.439-6.884,10.34-6.884,16.616   s2.445,12.176,6.884,16.616L430.765,328h-31.261c-4.142,0-7.5,3.358-7.5,7.5s3.358,7.5,7.5,7.5h49.367   c3.033,0,5.768-1.827,6.929-4.63c1.161-2.802,0.519-6.028-1.625-8.173l-68.684-68.688c-1.606-1.606-2.491-3.74-2.491-6.009   s0.885-4.403,2.494-6.013c1.602-1.604,3.735-2.487,6.006-2.487s4.404,0.883,6.009,2.491l96,96c0.006,0.006,0.012,0.012,0.018,0.018   c1.805,1.815,2.33,3.87,2.447,5.303c0.001,0.029,0.003,0.057,0.005,0.086c0.04,0.569,0.023,1.146-0.049,1.703   c-0.216,1.656-0.905,3.194-2.019,4.48c-0.134,0.156-0.27,0.306-0.484,0.515l-95.921,95.917c-1.602,1.604-3.735,2.487-6.006,2.487   s-4.404-0.883-6.009-2.491c-1.606-1.606-2.491-3.74-2.491-6.009s0.885-4.403,2.491-6.009l68.684-68.688   c2.145-2.145,2.786-5.371,1.625-8.173c-1.161-2.803-3.896-4.63-6.929-4.63H95.5c-4.142,0-7.5,3.358-7.5,7.5s3.358,7.5,7.5,7.5   h335.265l-55.881,55.884c-4.439,4.439-6.884,10.34-6.884,16.616s2.445,12.176,6.881,16.612c4.436,4.442,10.338,6.888,16.619,6.888   s12.183-2.446,16.616-6.884l95.849-95.846c0.454-0.442,0.891-0.909,1.308-1.396c3.021-3.484,4.934-7.749,5.533-12.347   c0.194-1.505,0.243-3.033,0.146-4.543C510.949,349.93,510.945,349.876,510.941,349.822z" fill="#000000"/>
	<path d="M63.5,360h-40c-4.687,0-8.5-3.813-8.5-8.5s3.813-8.5,8.5-8.5h343.997c4.142,0,7.5-3.358,7.5-7.5s-3.358-7.5-7.5-7.5H23.5   C10.542,328,0,338.542,0,351.5S10.542,375,23.5,375h40c4.142,0,7.5-3.358,7.5-7.5S67.642,360,63.5,360z" fill="#000000"/>
</g>
</svg>
