<?xml version="1.0" encoding="iso-8859-1"?>
<!DOCTYPE svg PUBLIC "-//W3C//DTD SVG 1.1//EN" "http://www.w3.org/Graphics/SVG/1.1/DTD/svg11.dtd">
<svg xmlns="http://www.w3.org/2000/svg" xmlns:xlink="http://www.w3.org/1999/xlink" version="1.1" x="0px" y="0px" xml:space="preserve">
<g>
	<path d="M463.498,151H487.5c4.687,0,8.5,3.813,8.5,8.5s-3.813,8.5-8.5,8.5H143.503c-4.142,0-7.5,3.358-7.5,7.5s3.358,7.5,7.5,7.5   H487.5c12.958,0,23.5-10.542,23.5-23.5S500.458,136,487.5,136h-24.002c-4.142,0-7.5,3.358-7.5,7.5S459.356,151,463.498,151z" fill="#000000"/>
	<path d="M0.059,161.178c0.397,5.534,2.744,10.753,6.615,14.724c0.106,0.114,0.216,0.225,0.33,0.332l95.878,95.878   c4.436,4.442,10.338,6.888,16.619,6.888s12.183-2.446,16.616-6.884c4.439-4.439,6.884-10.34,6.884-16.616   s-2.445-12.176-6.884-16.616L80.235,183h31.261c4.142,0,7.5-3.358,7.5-7.5s-3.358-7.5-7.5-7.5H62.129   c-3.033,0-5.768,1.827-6.929,4.63c-1.161,2.802-0.519,6.028,1.625,8.173l68.684,68.688c1.606,1.606,2.491,3.74,2.491,6.009   s-0.885,4.403-2.494,6.013c-1.602,1.604-3.735,2.487-6.006,2.487s-4.404-0.883-6.009-2.491l-96-96   c-0.006-0.006-0.012-0.012-0.018-0.018c-1.805-1.815-2.33-3.87-2.447-5.303c-0.001-0.029-0.003-0.057-0.005-0.086   c-0.04-0.569-0.023-1.146,0.049-1.703c0.216-1.656,0.905-3.194,2.019-4.48c0.134-0.156,0.27-0.306,0.484-0.515l95.921-95.917   C115.096,55.883,117.229,55,119.5,55s4.404,0.883,6.009,2.491c3.313,3.313,3.313,8.705,0,12.019l-68.684,68.688   c-2.145,2.145-2.786,5.371-1.625,8.173c1.161,2.803,3.896,4.63,6.929,4.63H431.5c4.142,0,7.5-3.358,7.5-7.5s-3.358-7.5-7.5-7.5   H80.235l55.881-55.884c9.162-9.162,9.162-24.069,0.003-33.228C131.683,42.446,125.781,40,119.5,40s-12.183,2.446-16.616,6.884   L7.036,142.73c-0.454,0.442-0.891,0.909-1.308,1.396c-3.021,3.484-4.934,7.749-5.533,12.347c-0.194,1.505-0.243,3.033-0.146,4.543   C0.051,161.07,0.055,161.124,0.059,161.178z" fill="#000000"/>
</g>
</svg>
