<svg xmlns="http://www.w3.org/2000/svg" width="66.138" height="66.138" viewBox="0 0 66.138 66.138">
  <style>
    path {
    fill: #2f2c2c;
    }​
  </style>
  <path d="M15.39 66.138c-2.874 0-5.775-.845-8.31-2.604l-.534-.37C-.068 58.57-1.714 49.45 2.88 42.836L16.812 24.25c2.183-3.146 5.522-5.292 9.36-5.984 3.84-.694 7.717.152 10.92 2.377l.535.37c2.72 1.888 4.735 4.676 5.675 7.85.313 1.06-.29 2.172-1.35 2.485-1.06.31-2.172-.29-2.486-1.35-.69-2.338-2.116-4.31-4.12-5.7l-.532-.37c-2.328-1.616-5.146-2.23-7.93-1.726-2.788.503-5.213 2.06-6.83 4.388L6.125 45.176c-3.292 4.744-2.1 11.365 2.704 14.7l.534.372c4.8 3.334 11.423 2.143 14.76-2.66l4.255-6.126c.63-.904 1.875-1.13 2.784-.5.907.63 1.132 1.876.502 2.783l-4.256 6.125c-2.833 4.08-7.388 6.268-12.016 6.268z"/>
  <path d="M37.366 48.11c-2.877 0-5.784-.843-8.323-2.605l-.538-.375c-2.718-1.888-4.73-4.674-5.67-7.845-.312-1.06.293-2.172 1.352-2.485 1.063-.312 2.173.29 2.485 1.352.69 2.335 2.114 4.305 4.117 5.695l.537.375c4.8 3.332 11.42 2.14 14.757-2.663l13.93-18.59c3.294-4.745 2.1-11.366-2.702-14.702l-.53-.365c-2.332-1.62-5.147-2.232-7.937-1.73-2.787.502-5.212 2.06-6.827 4.387l-4.256 6.125c-.63.908-1.876 1.132-2.782.502-.907-.63-1.133-1.876-.502-2.783l4.255-6.125C40.958 3.073 44.296.927 48.136.235c3.838-.69 7.72.153 10.922 2.38l.53.364c6.62 4.598 8.264 13.717 3.67 20.33L49.327 41.9c-2.806 4.037-7.345 6.21-11.962 6.21z"/>
  <path d="M49.83 30.174c-.21 0-.42-.065-.6-.2-.442-.33-.532-.958-.2-1.4l.548-.73c.33-.44.96-.53 1.4-.2.44.332.53.96.198 1.4l-.548.73c-.195.263-.495.4-.8.4zM52.116 27.125c-.21 0-.42-.065-.6-.2-.44-.33-.53-.958-.2-1.4l4.427-5.903c1.06-1.528 1.47-3.414 1.134-5.28-.337-1.867-1.38-3.49-2.938-4.572l-.345-.237c-.453-.315-.566-.938-.253-1.392.313-.453.937-.567 1.393-.252l.344.238c1.996 1.387 3.333 3.468 3.765 5.86.433 2.392-.094 4.81-1.48 6.806l-4.446 5.934c-.2.26-.5.4-.804.4z"/>
</svg>
